<?xml version="1.0" standalone="no"?>
<!DOCTYPE svg PUBLIC "-//W3C//DTD SVG 20010904//EN"
 "http://www.w3.org/TR/2001/REC-SVG-20010904/DTD/svg10.dtd">
<svg version="1.0" xmlns="http://www.w3.org/2000/svg"
 width="50.000000pt" height="50.000000pt" viewBox="0 0 50.000000 50.000000"
 preserveAspectRatio="xMidYMid meet">

<g transform="translate(0.000000,50.000000) scale(0.100000,-0.100000)"
fill="#ffffff" stroke="none">
<path d="M87 454 c-4 -4 -7 -22 -7 -41 0 -18 -4 -33 -10 -33 -5 0 -10 -4 -10
-10 0 -5 15 -11 33 -11 23 -1 26 -3 10 -6 -13 -2 -23 -11 -23 -19 0 -8 -4 -14
-10 -14 -5 0 -10 -4 -10 -10 0 -5 15 -11 33 -11 23 -1 26 -3 10 -6 -13 -2 -23
-11 -23 -19 0 -8 -4 -14 -10 -14 -5 0 -10 -4 -10 -10 0 -5 15 -11 33 -11 23
-1 26 -3 10 -6 -13 -2 -23 -11 -23 -19 0 -8 -4 -14 -10 -14 -5 0 -10 -4 -10
-10 0 -5 15 -11 33 -11 24 -1 26 -3 9 -6 -19 -4 -23 -10 -20 -36 l3 -32 165 0
165 0 0 205 0 205 -161 3 c-88 1 -163 -1 -167 -4z
m228 -139 c29 -28 33 -76 9 -99 -18 -19 -54 -21 -54 -4 0 9 -3 9 -12 0 -33
-33 -78 17 -47 54 40 48 79 39 79 -18 0 -35 2 -39 15 -28 29 24 16 86 -21 101
-49 18 -103 -22 -104 -77 0 -44 21 -66 71 -74 42 -6 42 -7 16 -14 -54 -16
-108 27 -107 87 2 80 102 126 155 72z"/>
<path fill="#000000" d="M244 272 c-16 -11 -24 -41 -13 -48 14 -8 39 15 39 37 0 20 -8 23 -26 11z"/>
</g>
</svg>
